# xmcd CD Database Entry
#
# Track frame offsets:
# 150
# 728
# 233332
#
# Disc length: 3901 seconds
#
# Revision: 2
# Processed by: cddbd v1.4b41PL1 Copyright (c) Steve Scherf et al.
# Submitted via: tcd 2.0b
#
DISCID=110f3b03
DTITLE=C-Team - Das Interview
DYEAR=1900
DGENRE=
TTITLE0=Intro
TTITLE1=Interview
TTITLE2=C-Team-Mix
EXTD=
EXTT0=
EXTT1=
EXTT2=
PLAYORDER=
